<?xml version="1.0" encoding="UTF-8" standalone="no"?>
<!-- Created with Inkscape (http://www.inkscape.org/) -->

<svg
   xmlns:dc="http://purl.org/dc/elements/1.1/"
   xmlns:cc="http://creativecommons.org/ns#"
   xmlns:rdf="http://www.w3.org/1999/02/22-rdf-syntax-ns#"
   xmlns:svg="http://www.w3.org/2000/svg"
   xmlns="http://www.w3.org/2000/svg"
   version="1.1"
   width="62.5"
   height="62.5"
   id="svg2"
   xml:space="preserve"><metadata
     id="metadata8"><rdf:RDF><cc:Work
         rdf:about=""><dc:format>image/svg+xml</dc:format><dc:type
           rdf:resource="http://purl.org/dc/dcmitype/StillImage" /><dc:title></dc:title></cc:Work></rdf:RDF></metadata><defs
     id="defs6"><clipPath
       id="clipPath16"><path
         d="m 23.955,36.247 c -0.13,-0.872 -0.264,-1.651 -0.401,-2.364 l 0,0 c -0.925,-2.768 -2.933,-5.862 -2.933,-5.862 l 0,0 c 0,0 0.222,1.89 0,5.558 l 0,0 c -0.223,3.668 -2.001,5.114 -2.001,5.114 l 0,0 c 0.779,-5.225 -2.668,-7.671 -5.447,-11.895 l 0,0 C 10.393,22.574 8.615,17.681 9.17,12.124 l 0,0 C 9.726,6.566 15.507,3.565 15.507,3.565 l 0,0 c 0,0 -0.9,1.759 -0.778,8.337 l 0,0 c 0.067,3.663 2.672,7.382 3.922,8.924 l 0,0 C 16.787,15.246 15.037,5.509 20.621,2.12 l 0,0 c 4.386,-2.664 12.005,0 16.007,5.67 l 0,0 c 4.002,5.668 4.691,11.958 4.135,15.406 l 0,0 c -0.556,3.445 -1.613,5.373 -1.613,5.373 l 0,0 c 0,0 0.505,-5.575 -0.94,-8.466 l 0,0 c -1.445,-2.891 -2.582,-3.2 -2.582,-3.2 l 0,0 c 0,0 4.336,10.117 -2.445,20.344 l 0,0 C 26.402,47.475 19.509,48.919 19.509,48.919 l 0,0 c 0,0 5.669,-4.557 4.446,-12.672"
         id="path18" /></clipPath><linearGradient
       x1="0"
       y1="0"
       x2="1"
       y2="0"
       id="linearGradient24"
       gradientUnits="userSpaceOnUse"
       gradientTransform="matrix(31.861816,0,0,-31.861816,9.0688477,25)"
       spreadMethod="pad"><stop
         id="stop26"
         style="stop-color:#eb5f21;stop-opacity:1"
         offset="0" /><stop
         id="stop28"
         style="stop-color:#e73c35;stop-opacity:1"
         offset="0.68036401" /><stop
         id="stop30"
         style="stop-color:#eb5f21;stop-opacity:1"
         offset="0.97161198" /><stop
         id="stop32"
         style="stop-color:#eb5f21;stop-opacity:1"
         offset="1" /></linearGradient></defs><g
     transform="matrix(1.25,0,0,-1.25,0,62.5)"
     id="g10"><g
       id="g12"><g
         clip-path="url(#clipPath16)"
         id="g14"><g
           id="g20"><g
             id="g22"><path
               d="m 23.955,36.247 c -0.13,-0.872 -0.264,-1.651 -0.401,-2.364 l 0,0 c -0.925,-2.768 -2.933,-5.862 -2.933,-5.862 l 0,0 c 0,0 0.222,1.89 0,5.558 l 0,0 c -0.223,3.668 -2.001,5.114 -2.001,5.114 l 0,0 c 0.779,-5.225 -2.668,-7.671 -5.447,-11.895 l 0,0 C 10.393,22.574 8.615,17.681 9.17,12.124 l 0,0 C 9.726,6.566 15.507,3.565 15.507,3.565 l 0,0 c 0,0 -0.9,1.759 -0.778,8.337 l 0,0 c 0.067,3.663 2.672,7.382 3.922,8.924 l 0,0 C 16.787,15.246 15.037,5.509 20.621,2.12 l 0,0 c 4.386,-2.664 12.005,0 16.007,5.67 l 0,0 c 4.002,5.668 4.691,11.958 4.135,15.406 l 0,0 c -0.556,3.445 -1.613,5.373 -1.613,5.373 l 0,0 c 0,0 0.505,-5.575 -0.94,-8.466 l 0,0 c -1.445,-2.891 -2.582,-3.2 -2.582,-3.2 l 0,0 c 0,0 4.336,10.117 -2.445,20.344 l 0,0 C 26.402,47.475 19.509,48.919 19.509,48.919 l 0,0 c 0,0 5.669,-4.557 4.446,-12.672"
               id="path34"
               style="fill:url(#linearGradient24);stroke:none" /></g></g></g></g></g></svg>