<?xml version="1.0" encoding="UTF-8" standalone="no"?>
<!-- Created with Inkscape (http://www.inkscape.org/) -->

<svg
   xmlns:dc="http://purl.org/dc/elements/1.1/"
   xmlns:cc="http://creativecommons.org/ns#"
   xmlns:rdf="http://www.w3.org/1999/02/22-rdf-syntax-ns#"
   xmlns:svg="http://www.w3.org/2000/svg"
   xmlns="http://www.w3.org/2000/svg"
   version="1.1"
   width="62.5"
   height="62.500626"
   id="svg2"
   xml:space="preserve"><metadata
     id="metadata8"><rdf:RDF><cc:Work
         rdf:about=""><dc:format>image/svg+xml</dc:format><dc:type
           rdf:resource="http://purl.org/dc/dcmitype/StillImage" /><dc:title></dc:title></cc:Work></rdf:RDF></metadata><defs
     id="defs6"><clipPath
       id="clipPath16"><path
         d="M 28.841,40.073 C 28.526,33.839 28.095,27.637 28.095,26.885 l 0,0 c 0,-1.401 -2.3,-3.288 -2.761,-3.653 l 0,0 L 25,22.97 24.666,23.232 c -0.46,0.365 -2.762,2.252 -2.762,3.653 l 0,0 c 0,0.752 -0.43,6.954 -0.746,13.188 l 0,0 -11.231,2.423 0,-23.148 C 9.927,7.772 25,1.583 25,1.583 l 0,0 c 0,0 15.073,6.189 15.073,17.765 l 0,0 0,23.148 -11.232,-2.423 z"
         id="path18" /></clipPath><linearGradient
       x1="0"
       y1="0"
       x2="1"
       y2="0"
       id="linearGradient24"
       gradientUnits="userSpaceOnUse"
       gradientTransform="matrix(30.146484,0,0,-30.146484,9.9267578,22.039062)"
       spreadMethod="pad"><stop
         id="stop26"
         style="stop-color:#444443;stop-opacity:1"
         offset="0" /><stop
         id="stop28"
         style="stop-color:#5c5c5b;stop-opacity:1"
         offset="0.49551401" /><stop
         id="stop30"
         style="stop-color:#444443;stop-opacity:1"
         offset="0.97161198" /><stop
         id="stop32"
         style="stop-color:#444443;stop-opacity:1"
         offset="1" /></linearGradient><clipPath
       id="clipPath40"><path
         d="M 0,50 50,50 50,0 0,0 0,50 z"
         id="path42" /></clipPath></defs><g
     transform="matrix(1.25,0,0,-1.25,0,62.500625)"
     id="g10"><g
       id="g12"><g
         clip-path="url(#clipPath16)"
         id="g14"><g
           id="g20"><g
             id="g22"><path
               d="M 28.841,40.073 C 28.526,33.839 28.095,27.637 28.095,26.885 l 0,0 c 0,-1.401 -2.3,-3.288 -2.761,-3.653 l 0,0 L 25,22.97 24.666,23.232 c -0.46,0.365 -2.762,2.252 -2.762,3.653 l 0,0 c 0,0.752 -0.43,6.954 -0.746,13.188 l 0,0 -11.231,2.423 0,-23.148 C 9.927,7.772 25,1.583 25,1.583 l 0,0 c 0,0 15.073,6.189 15.073,17.765 l 0,0 0,23.148 -11.232,-2.423 z"
               id="path34"
               style="fill:url(#linearGradient24);stroke:none" /></g></g></g></g><g
       id="g36"><g
         clip-path="url(#clipPath40)"
         id="g38"><g
           transform="translate(25,24.3521)"
           id="g44"><path
             d="m 0,0 c 0.912,0.782 2.019,1.958 2.019,2.533 0,1.113 0.873,18.119 1.048,21.532 l -6.134,0 C -2.892,20.652 -2.019,3.646 -2.019,2.533 -2.019,1.957 -0.912,0.78 0,0"
             id="path46"
             style="fill:#444443;fill-opacity:1;fill-rule:nonzero;stroke:none" /></g></g></g></g></svg>